<svg width="17" height="13" viewBox="0 0 17 13" fill="none" xmlns="http://www.w3.org/2000/svg">
<g clip-path="url(#clip0_51428_4334)">
<path d="M8.50014 5.25476C8.69957 5.25443 8.89385 5.31633 9.05439 5.43137L16.6229 10.8653C16.7214 10.9361 16.8045 11.025 16.8677 11.127C16.9308 11.2291 16.9726 11.3422 16.9908 11.4599C17.0275 11.6977 16.9655 11.9399 16.8185 12.1333C16.6715 12.3266 16.4515 12.4553 16.207 12.4909C15.9624 12.5266 15.7133 12.4664 15.5144 12.3234L8.50014 7.2925L1.48589 12.3234C1.38742 12.3942 1.27557 12.4454 1.15674 12.4742C1.03791 12.5029 0.914423 12.5086 0.793326 12.4909C0.672226 12.4733 0.555893 12.4326 0.450966 12.3712C0.346037 12.3099 0.254568 12.229 0.181784 12.1333C0.109 12.0375 0.0563226 11.9288 0.0267625 11.8132C-0.00279753 11.6977 -0.00866262 11.5776 0.00950107 11.4599C0.0276667 11.3422 0.0695043 11.2291 0.13263 11.127C0.195754 11.025 0.278927 10.9361 0.377402 10.8653L7.94589 5.43137C8.10643 5.31633 8.30071 5.25443 8.50014 5.25476Z" fill="white"/>
<path d="M8.49996 0.499879C8.69939 0.499544 8.89366 0.561447 9.0542 0.676482L16.6227 6.11045C16.8216 6.25336 16.9539 6.46724 16.9906 6.70502C17.0273 6.9428 16.9653 7.18501 16.8183 7.37837C16.6713 7.57173 16.4513 7.70039 16.2068 7.73606C15.9622 7.77173 15.7131 7.71147 15.5142 7.56856L8.49996 2.53761L1.48571 7.56856C1.28683 7.71147 1.03771 7.77173 0.793142 7.73606C0.548573 7.70039 0.328596 7.57173 0.181601 7.37837C0.0346055 7.18501 -0.0273661 6.9428 0.00931796 6.70502C0.0460039 6.46723 0.178341 6.25336 0.377219 6.11044L7.94571 0.676482C8.10625 0.561447 8.30053 0.499544 8.49996 0.499879Z" fill="white"/>
</g>
<defs>
<clipPath id="clip0_51428_4334">
<rect width="17" height="12" fill="white" transform="translate(17 12.5) rotate(-180)"/>
</clipPath>
</defs>
</svg>
